<?xml version="1.0" encoding="utf-8"?>
<!-- Generator: Adobe Illustrator 21.0.0, SVG Export Plug-In . SVG Version: 6.00 Build 0)  -->
<svg version="1.1" id="Layer_1" xmlns="http://www.w3.org/2000/svg" xmlns:xlink="http://www.w3.org/1999/xlink" x="0px" y="0px"
	 viewBox="0 0 432 201.8" style="enable-background:new 0 0 432 201.8;" xml:space="preserve">
<style type="text/css">
	.st0{fill:#FFFFFF;}
	.st1{fill:#5B8C33;}
</style>
<g>
	<g>
		<path class="st0" d="M1.5,189.4c-0.4-0.2-0.5-0.3-0.5-0.9c0-1.4,0.1-2.9,0.1-3.3c0-0.4,0.1-0.7,0.3-0.7s0.3,0.2,0.3,0.4
			c0,0.3,0.1,0.9,0.2,1.3c0.6,1.9,2,2.5,3.6,2.5c2.3,0,3.4-1.5,3.4-2.9c0-1.2-0.4-2.4-2.5-4L5.3,181c-2.8-2.2-3.7-3.9-3.7-6
			c0-2.8,2.3-4.8,5.8-4.8c1.6,0,2.7,0.3,3.4,0.4c0.2,0.1,0.4,0.1,0.4,0.3c0,0.3-0.1,1.1-0.1,3c0,0.6-0.1,0.8-0.3,0.8
			s-0.3-0.2-0.3-0.5c0-0.2-0.1-1-0.7-1.7c-0.4-0.5-1.1-1.2-2.7-1.2c-1.9,0-3,1.1-3,2.6c0,1.2,0.6,2,2.7,3.6l0.7,0.5
			c3,2.3,4.1,4,4.1,6.4c0,1.5-0.6,3.2-2.4,4.4c-1.3,0.8-2.7,1-4,1C3.7,190,2.6,189.9,1.5,189.4z"/>
		<path class="st0" d="M14.1,181.6c0-3.7,2.6-8.4,9.3-8.4c5.6,0,9.1,3.1,9.1,8s-3.6,8.8-9.3,8.8C16.7,190,14.1,185.4,14.1,181.6z
			 M29.2,182c0-4.7-2.8-7.7-6.4-7.7c-2.5,0-5.4,1.3-5.4,6.6c0,4.4,2.5,7.9,6.7,7.9C25.7,188.8,29.2,188.1,29.2,182z"/>
		<path class="st0" d="M37.2,187.6c-2.2-1.8-2.8-4.3-2.8-6.3c0-1.5,0.5-4,2.6-5.9c1.6-1.4,3.7-2.3,7-2.3c1.4,0,2.2,0.1,3.2,0.2
			c0.8,0.1,1.6,0.3,2.2,0.4c0.3,0,0.3,0.1,0.3,0.3s-0.1,0.4-0.1,1.2c-0.1,0.7-0.1,1.9-0.1,2.3c0,0.3-0.1,0.5-0.3,0.5
			s-0.2-0.2-0.2-0.5c0-0.7-0.3-1.4-0.9-2c-0.8-0.7-2.2-1.3-4.3-1.3c-1.9,0-3.2,0.4-4.2,1.2c-1.6,1.4-2,3.5-2,5.6
			c0,5.1,3.9,7.5,6.9,7.5c2,0,3-0.2,3.9-1.1c0.4-0.4,0.7-1,0.8-1.4c0.1-0.3,0.1-0.4,0.3-0.4s0.3,0.2,0.3,0.4c0,0.3-0.3,2.1-0.5,2.8
			c-0.1,0.4-0.2,0.5-0.6,0.6c-0.9,0.4-2.6,0.5-4,0.5C41.8,190,39.2,189.3,37.2,187.6z"/>
		<path class="st0" d="M54.1,179.7c0-3.3,0-3.9,0-4.5c-0.1-0.7-0.3-1-0.8-1.1c-0.3-0.1-0.5-0.1-0.8-0.1c-0.2,0-0.4,0-0.4-0.3
			c0-0.1,0.2-0.2,0.5-0.2c0.8,0,2.3,0.1,3,0.1c0.6,0,2-0.1,2.8-0.1c0.3,0,0.5,0.1,0.5,0.2c0,0.2-0.1,0.3-0.4,0.3
			c-0.2,0-0.4,0-0.7,0.1c-0.6,0.1-0.8,0.4-0.8,1.2c-0.1,0.7-0.1,1.3-0.1,4.5v3.8c0,2.1,0,3.8,0.1,4.7c0.1,0.6,0.2,0.9,0.9,1
			c0.3,0,0.8,0.1,1.1,0.1s0.4,0.1,0.4,0.2c0,0.2-0.2,0.2-0.4,0.2c-1.5,0-3-0.1-3.6-0.1c-0.5,0-2,0.1-2.9,0.1c-0.3,0-0.4-0.1-0.4-0.2
			c0-0.1,0.1-0.2,0.4-0.2c0.3,0,0.6,0,0.8-0.1c0.5-0.1,0.6-0.4,0.7-1c0.1-0.9,0.1-2.6,0.1-4.7C54.1,183.6,54.1,179.7,54.1,179.7z"/>
		<path class="st0" d="M63.8,179.7c0-3.3,0-3.9,0-4.5c-0.1-0.7-0.3-1-1-1.2c-0.2-0.1-0.6-0.1-0.9-0.1c-0.2,0-0.4-0.1-0.4-0.2
			c0-0.2,0.2-0.2,0.5-0.2c1.2,0,2.6,0.1,3.2,0.1c0.7,0,5.6,0,6,0s0.8-0.1,0.9-0.1s0.3-0.1,0.4-0.1s0.2,0.1,0.2,0.2
			c0,0.2-0.1,0.4-0.2,1.4c0,0.2-0.1,1.2-0.1,1.4c0,0.1-0.1,0.4-0.3,0.4c-0.2,0-0.2-0.1-0.2-0.3s0-0.5-0.2-0.8
			c-0.2-0.4-0.4-0.7-1.5-0.8c-0.4-0.1-3-0.1-3.5-0.1c-0.1,0-0.1,0.1-0.1,0.2v5.3c0,0.1,0,0.2,0.1,0.2c0.5,0,3.4,0,3.9-0.1
			c0.5,0,0.8-0.1,1.1-0.3c0.2-0.2,0.3-0.3,0.4-0.3s0.2,0.1,0.2,0.2c0,0.1-0.1,0.5-0.2,1.6C72,182,72,182.9,72,183
			c0,0.2,0,0.5-0.2,0.5s-0.2-0.1-0.2-0.2c0-0.2,0-0.5-0.1-0.8c-0.1-0.4-0.4-0.8-1.2-0.8c-0.4,0-2.9-0.1-3.5-0.1
			c-0.1,0-0.1,0.1-0.1,0.2v1.7c0,0.7,0,2.5,0,3.2c0.1,1.5,0.7,1.8,3,1.8c0.6,0,1.5,0,2.1-0.3s0.8-0.7,1-1.6c0.1-0.2,0.1-0.3,0.3-0.3
			c0.2,0,0.2,0.3,0.2,0.5c0,0.5-0.2,1.9-0.3,2.4c-0.2,0.6-0.4,0.6-1.2,0.6c-1.7,0-3,0-4.1-0.1c-1.1,0-1.9-0.1-2.6-0.1
			c-0.3,0-0.7,0-1.3,0c-0.5,0-1.1,0.1-1.5,0.1c-0.3,0-0.4-0.1-0.4-0.2c0-0.1,0.1-0.2,0.4-0.2c0.3,0,0.6,0,0.8-0.1
			c0.5-0.1,0.6-0.5,0.7-1.1c0.1-0.9,0.1-2.6,0.1-4.6v-3.8L63.8,179.7L63.8,179.7z"/>
		<path class="st0" d="M80.8,174.8l-3.3,0.1c-1.3,0-1.8,0.2-2.1,0.7c-0.2,0.3-0.3,0.6-0.4,0.7c-0.1,0.2-0.1,0.3-0.3,0.3
			c-0.2,0-0.2-0.1-0.2-0.4c0-0.4,0.4-2.4,0.5-2.6c0.1-0.3,0.1-0.4,0.3-0.4c0.2,0,0.4,0.2,1,0.3c0.7,0.1,1.5,0.1,2.2,0.1h9
			c0.7,0,1.2-0.1,1.5-0.1c0.4-0.1,0.5-0.1,0.6-0.1s0.2,0.1,0.2,0.5c0,0.5-0.1,2-0.1,2.6c0,0.2-0.1,0.4-0.2,0.4
			c-0.2,0-0.2-0.1-0.3-0.4v-0.2c-0.1-0.6-0.6-1.2-2.6-1.2l-2.8-0.1v8.7c0,2,0,3.7,0.1,4.6c0.1,0.6,0.2,1,0.9,1.1
			c0.3,0,0.8,0.1,1.1,0.1c0.3,0,0.4,0.1,0.4,0.2c0,0.2-0.2,0.2-0.4,0.2c-1.5,0-2.9-0.1-3.6-0.1c-0.5,0-2,0.1-2.9,0.1
			c-0.3,0-0.4-0.1-0.4-0.2c0-0.1,0.1-0.2,0.4-0.2s0.6,0,0.8-0.1c0.5-0.1,0.6-0.5,0.7-1.1c0.1-0.9,0.1-2.6,0.1-4.6v-8.9L80.8,174.8
			L80.8,174.8z"/>
		<path class="st0" d="M95.8,184.1c0-1.2-0.2-1.6-0.5-2.2c-0.1-0.3-3.2-5-4-6.2c-0.6-0.8-1-1.3-1.4-1.5c-0.3-0.2-0.7-0.3-0.9-0.3
			c-0.2,0-0.3-0.1-0.3-0.2c0-0.2,0.1-0.2,0.4-0.2c0.4,0,2,0.1,2.8,0.1c0.5,0,1.5-0.1,2.5-0.1c0.2,0,0.3,0.1,0.3,0.2
			c0,0.2-0.1,0.2-0.5,0.3c-0.2,0.1-0.3,0.2-0.3,0.3c0,0.2,0.1,0.4,0.3,0.7c0.4,0.7,3.3,5.7,3.7,6.3c0.3-0.5,3-5.1,3.3-5.7
			c0.2-0.5,0.3-0.9,0.3-1.1c0-0.2-0.1-0.4-0.5-0.5c-0.2,0-0.4-0.1-0.4-0.3s0.1-0.2,0.4-0.2c0.7,0,1.5,0.1,2.2,0.1
			c0.5,0,1.9-0.1,2.4-0.1c0.3,0,0.4,0.1,0.4,0.2c0,0.2-0.2,0.3-0.4,0.3c-0.2,0-0.6,0.1-1,0.3c-0.5,0.2-0.7,0.4-1.2,1
			c-0.7,0.9-3.9,5.9-4.3,6.9c-0.3,0.8-0.3,1.4-0.3,2.1v1.7c0,0.4,0,1.2,0.1,2.1c0.1,0.6,0.3,1,0.9,1.1c0.3,0,0.8,0.1,1.1,0.1
			c0.3,0,0.4,0.1,0.4,0.2c0,0.2-0.2,0.2-0.5,0.2c-1.4,0-2.9-0.1-3.5-0.1s-2,0.1-2.9,0.1c-0.3,0-0.5-0.1-0.5-0.2
			c0-0.1,0.1-0.2,0.4-0.2s0.6,0,0.8-0.1c0.5-0.1,0.6-0.5,0.7-1.1c0.1-0.9,0.1-1.8,0.1-2.1L95.8,184.1L95.8,184.1z"/>
		<path class="st0" d="M110.6,181.4l0.2-1.3h1.5l0.8-4.5c0.4-2.1,1.4-3,2.9-3c1.2,0,1.8,0.5,2.3,1.2l-1.1,0.9
			c-0.3-0.4-0.6-0.7-1.2-0.7c-0.7,0-1.2,0.3-1.4,1.6l-0.8,4.4h2.5l-0.2,1.3h-2.5l-1.8,10.5c-0.4,2.2-1.3,2.6-2.8,2.6h-1l0.2-1.3h0.7
			c0.6,0,1.1-0.2,1.3-1.5l1.8-10.3h-1.4V181.4z"/>
		<path class="st0" d="M116.9,185.1c0-3,2.3-5.2,5.2-5.2c2.7,0,4.8,2.1,4.8,4.8c0,3-2.3,5.2-5.2,5.2
			C119,189.8,116.9,187.7,116.9,185.1z M125.2,184.6c0-1.9-1.2-3.4-3.2-3.4c-2.1,0-3.5,1.6-3.5,3.9c0,1.9,1.3,3.4,3.2,3.4
			C123.9,188.4,125.2,186.8,125.2,184.6z"/>
		<path class="st0" d="M130.1,180h1.6l-0.5,2.1c0.7-1.4,1.7-2.2,3-2.2c0.6,0,0.9,0.1,1.2,0.3l-0.6,1.4c-0.3-0.2-0.6-0.2-0.9-0.2
			c-1.6,0-2.6,1.2-3,3.3l-0.9,5h-1.6L130.1,180z"/>
		<path class="st0" d="M141.3,181.4l0.2-1.3h1.4l0.9-5h1.5l-0.9,5h2.6l-0.2,1.3h-2.6l-0.9,5.3c-0.2,1.2,0.1,1.7,0.9,1.7
			c0.6,0,0.9-0.2,1.2-0.5l0.7,1.1c-0.5,0.4-1.1,0.8-2.2,0.8c-1.5,0-2.7-0.9-2.3-3.1l0.9-5.3H141.3z"/>
		<path class="st0" d="M151,172.9h1.6l-1.6,8.9c0.7-1.2,1.8-2,3.3-2c2.1,0,3.5,1.6,3,4.3l-0.6,3.5c-0.1,0.5,0,0.7,0.4,0.7h0.9
			l-0.2,1.3h-1c-1.4,0-1.9-0.7-1.6-2.2l0.6-3.2c0.3-1.8-0.3-3-2-3s-2.8,1-3.2,3l-0.9,5.4h-1.6L151,172.9z"/>
		<path class="st0" d="M164.5,188.5c1.4,0,2.3-0.5,3-1.2l1,1c-0.9,0.9-2.2,1.5-4,1.5c-2.9,0-4.9-2-4.9-4.8c0-3,2.2-5.2,5-5.2
			c3,0,4.5,2.1,4.5,5l-7.9,0.8C161.5,187.3,162.7,188.5,164.5,188.5z M167.4,183.8c-0.1-1.4-0.9-2.7-2.9-2.7c-1.9,0-3.1,1.4-3.4,3.4
			L167.4,183.8z"/>
		<path class="st0" d="M177.5,189.4c-0.4-0.2-0.5-0.3-0.5-0.9c0-1.4,0.1-2.9,0.1-3.3c0-0.4,0.1-0.7,0.3-0.7s0.3,0.2,0.3,0.4
			c0,0.3,0.1,0.9,0.2,1.3c0.6,1.9,2,2.5,3.6,2.5c2.3,0,3.4-1.5,3.4-2.9c0-1.2-0.4-2.4-2.5-4l-1.2-0.9c-2.8-2.2-3.7-3.9-3.7-6
			c0-2.8,2.3-4.8,5.8-4.8c1.6,0,2.7,0.3,3.4,0.4c0.2,0.1,0.4,0.1,0.4,0.3c0,0.3-0.1,1.1-0.1,3c0,0.6-0.1,0.8-0.3,0.8
			s-0.3-0.2-0.3-0.5c0-0.2-0.1-1-0.7-1.7c-0.4-0.5-1.1-1.2-2.7-1.2c-1.9,0-3,1.1-3,2.6c0,1.2,0.6,2,2.7,3.6l0.7,0.5
			c3,2.3,4.1,4,4.1,6.4c0,1.5-0.6,3.2-2.4,4.4c-1.3,0.8-2.7,1-4,1C179.7,190,178.6,189.9,177.5,189.4z"/>
		<path class="st0" d="M195.5,174.8l-3.3,0.1c-1.3,0-1.8,0.2-2.1,0.7c-0.2,0.3-0.3,0.6-0.4,0.7c-0.1,0.2-0.1,0.3-0.3,0.3
			s-0.2-0.1-0.2-0.4c0-0.4,0.4-2.4,0.5-2.6c0.1-0.3,0.1-0.4,0.3-0.4s0.4,0.2,1,0.3c0.7,0.1,1.5,0.1,2.2,0.1h9c0.7,0,1.2-0.1,1.5-0.1
			c0.4-0.1,0.5-0.1,0.6-0.1s0.2,0.1,0.2,0.5c0,0.5-0.1,2-0.1,2.6c0,0.2-0.1,0.4-0.2,0.4c-0.2,0-0.2-0.1-0.3-0.4v-0.2
			c-0.1-0.6-0.6-1.2-2.6-1.2l-2.8-0.1v8.7c0,2,0,3.7,0.1,4.6c0.1,0.6,0.2,1,0.9,1.1c0.3,0,0.8,0.1,1.1,0.1s0.4,0.1,0.4,0.2
			c0,0.2-0.2,0.2-0.4,0.2c-1.5,0-2.9-0.1-3.6-0.1c-0.5,0-2,0.1-2.9,0.1c-0.3,0-0.4-0.1-0.4-0.2c0-0.1,0.1-0.2,0.4-0.2
			c0.3,0,0.6,0,0.8-0.1c0.5-0.1,0.6-0.5,0.7-1.1c0.1-0.9,0.1-2.6,0.1-4.6v-8.9L195.5,174.8L195.5,174.8z"/>
		<path class="st0" d="M207,179.7c0-3.3,0-3.9,0-4.5c-0.1-0.8-0.3-1-1-1.2c-0.2-0.1-0.6-0.1-0.9-0.1c-0.3,0-0.4-0.1-0.4-0.2
			c0-0.2,0.2-0.2,0.5-0.2c1.2,0,2.7,0.1,3.3,0.1s2-0.1,2.8-0.1c0.3,0,0.5,0.1,0.5,0.2c0,0.2-0.1,0.2-0.4,0.2c-0.3,0-0.4,0-0.7,0.1
			c-0.6,0.1-0.8,0.4-0.8,1.2c-0.1,0.7-0.1,1.3-0.1,4.5v3c0,3.1,0.6,4.3,1.7,5.2c1,0.8,2,0.9,2.8,0.9c1,0,2.1-0.3,3-1.1
			c1.2-1.2,1.3-3,1.3-5.2v-2.7c0-3.3,0-3.9-0.1-4.5c-0.1-0.7-0.2-1-0.9-1.2c-0.2-0.1-0.6-0.1-0.8-0.1c-0.3,0-0.4-0.1-0.4-0.2
			c0-0.2,0.2-0.2,0.5-0.2c1.1,0,2.6,0.1,2.6,0.1c0.3,0,1.7-0.1,2.6-0.1c0.3,0,0.5,0.1,0.5,0.2c0,0.2-0.1,0.2-0.4,0.2
			c-0.3,0-0.4,0-0.7,0.1c-0.6,0.1-0.8,0.4-0.8,1.2c0,0.7-0.1,1.3-0.1,4.5v2.3c0,2.4-0.3,4.9-2.1,6.5c-1.6,1.3-3.3,1.5-4.7,1.5
			c-1.2,0-3.5-0.1-5.1-1.5c-1.1-1-2-2.6-2-5.7v-3.2H207z"/>
		<path class="st0" d="M226.1,179.7c0-3.3,0-3.9,0-4.5c-0.1-0.7-0.3-1-1-1.2c-0.2-0.1-0.6-0.1-0.9-0.1c-0.2,0-0.4-0.1-0.4-0.2
			c0-0.2,0.2-0.2,0.5-0.2c1.2,0,2.6,0.1,3.2,0.1c0.7,0,2.3-0.1,3.6-0.1c2.8,0,6.5,0,8.9,2.4c1.1,1.1,2.1,2.9,2.1,5.4
			c0,2.7-1.2,4.7-2.4,6c-1,1-3.4,2.5-7.4,2.5c-0.8,0-1.8-0.1-2.6-0.1c-0.9-0.1-1.7-0.1-2.2-0.1c-0.3,0-0.7,0-1.3,0
			c-0.5,0-1.1,0.1-1.5,0.1c-0.3,0-0.4-0.1-0.4-0.2c0-0.1,0.1-0.2,0.4-0.2c0.3,0,0.6,0,0.8-0.1c0.5-0.1,0.6-0.5,0.7-1.1
			c0.1-0.9,0.1-2.6,0.1-4.6v-3.8L226.1,179.7L226.1,179.7z M229.1,182.1c0,2.3,0,3.9,0.1,4.3c0,0.5,0.1,1.3,0.3,1.5
			c0.3,0.4,1.2,0.9,2.9,0.9c2,0,3.5-0.4,4.8-1.5c1.4-1.2,1.9-3.1,1.9-5.3c0-2.7-1.1-4.5-2.1-5.3c-2-1.8-4.5-2-6.2-2
			c-0.5,0-1.2,0.1-1.4,0.2c-0.2,0.1-0.3,0.2-0.3,0.4c0,0.7,0,2.5,0,4.2V182.1z"/>
		<path class="st0" d="M248.9,184.1c0-1.2-0.2-1.6-0.5-2.2c-0.1-0.3-3.2-5-4-6.2c-0.6-0.8-1-1.3-1.4-1.5c-0.3-0.2-0.7-0.3-0.9-0.3
			s-0.3-0.1-0.3-0.2c0-0.2,0.1-0.2,0.4-0.2c0.4,0,2,0.1,2.8,0.1c0.5,0,1.5-0.1,2.5-0.1c0.2,0,0.3,0.1,0.3,0.2c0,0.2-0.1,0.2-0.5,0.3
			c-0.2,0.1-0.3,0.2-0.3,0.3c0,0.2,0.1,0.4,0.3,0.7c0.4,0.7,3.3,5.7,3.7,6.3c0.3-0.5,3-5.1,3.3-5.7c0.2-0.5,0.3-0.9,0.3-1.1
			c0-0.2-0.1-0.4-0.5-0.5c-0.2,0-0.4-0.1-0.4-0.3s0.1-0.2,0.4-0.2c0.7,0,1.5,0.1,2.2,0.1c0.5,0,1.9-0.1,2.4-0.1
			c0.3,0,0.4,0.1,0.4,0.2c0,0.2-0.2,0.3-0.4,0.3c-0.2,0-0.6,0.1-1,0.3c-0.5,0.2-0.7,0.4-1.2,1c-0.7,0.9-3.9,5.9-4.3,6.9
			c-0.3,0.8-0.3,1.4-0.3,2.1v1.7c0,0.4,0,1.2,0.1,2.1c0.1,0.6,0.3,1,0.9,1.1c0.3,0,0.8,0.1,1.1,0.1s0.4,0.1,0.4,0.2
			c0,0.2-0.2,0.2-0.5,0.2c-1.4,0-2.9-0.1-3.5-0.1s-2,0.1-2.9,0.1c-0.3,0-0.5-0.1-0.5-0.2c0-0.1,0.1-0.2,0.4-0.2c0.3,0,0.6,0,0.8-0.1
			c0.5-0.1,0.6-0.5,0.7-1.1c0.1-0.9,0.1-1.8,0.1-2.1v-1.9L248.9,184.1L248.9,184.1z"/>
		<path class="st0" d="M263.3,185.1c0-3,2.3-5.2,5.2-5.2c2.7,0,4.8,2.1,4.8,4.8c0,3-2.3,5.2-5.2,5.2
			C265.4,189.8,263.3,187.7,263.3,185.1z M271.7,184.6c0-1.9-1.2-3.4-3.2-3.4c-2.1,0-3.5,1.6-3.5,3.9c0,1.9,1.3,3.4,3.2,3.4
			C270.3,188.4,271.7,186.8,271.7,184.6z"/>
		<path class="st0" d="M275.1,181.4l0.2-1.3h1.5l0.8-4.5c0.4-2.1,1.4-3,2.9-3c1.2,0,1.8,0.5,2.3,1.2l-1.1,0.9
			c-0.3-0.4-0.6-0.7-1.2-0.7c-0.7,0-1.2,0.3-1.4,1.6l-0.8,4.4h2.5l-0.2,1.3h-2.5l-1.8,10.5c-0.4,2.2-1.3,2.6-2.8,2.6h-1l0.2-1.3h0.7
			c0.6,0,1.1-0.2,1.3-1.5l1.8-10.3h-1.4V181.4z"/>
		<path class="st0" d="M289.6,177.9c0-3.8,0-4.5-0.1-5.3c-0.1-0.9-0.3-1.3-1.1-1.4c-0.2-0.1-0.6-0.1-1-0.1c-0.3,0-0.4-0.1-0.4-0.2
			c0-0.2,0.2-0.2,0.6-0.2c0.7,0,1.4,0,2,0c0.7,0,1.2,0,1.6,0c0.8,0,5.8,0,6.3,0s0.9-0.1,1.1-0.2c0.1,0,0.3-0.1,0.4-0.1
			s0.1,0.1,0.1,0.2c0,0.2-0.1,0.5-0.2,1.6c0,0.3-0.1,1.4-0.1,1.7c0,0.1-0.1,0.3-0.3,0.3c-0.2,0-0.2-0.1-0.2-0.4c0-0.2,0-0.6-0.2-0.9
			c-0.2-0.5-0.4-0.8-1.7-0.9c-0.4-0.1-3.1-0.1-3.6-0.1c-0.1,0-0.2,0.1-0.2,0.3v6.4c0,0.2,0,0.3,0.2,0.3c0.6,0,3.5,0,4-0.1
			c0.6-0.1,1-0.1,1.2-0.4c0.2-0.2,0.3-0.3,0.4-0.3s0.2,0.1,0.2,0.2c0,0.2-0.1,0.6-0.2,1.8c0,0.5-0.1,1.5-0.1,1.7s0,0.5-0.2,0.5
			s-0.2-0.1-0.2-0.2c0-0.3,0-0.6-0.1-0.9c-0.1-0.5-0.5-0.9-1.4-1c-0.5-0.1-3-0.1-3.6-0.1c-0.1,0-0.2,0.1-0.2,0.3v2
			c0,0.9,0,3.2,0,3.9c0.1,1.7,0.5,2.1,3,2.1c0.7,0,1.7,0,2.4-0.3c0.7-0.3,1-0.8,1.1-1.9c0.1-0.3,0.1-0.4,0.3-0.4
			c0.2,0,0.2,0.2,0.2,0.5c0,0.6-0.2,2.3-0.3,2.8c-0.2,0.7-0.4,0.7-1.4,0.7c-1.9,0-3.3,0-4.4-0.1s-1.9-0.1-2.6-0.1
			c-0.3,0-0.8,0-1.4,0s-1.2,0.1-1.7,0.1c-0.3,0-0.5-0.1-0.5-0.3c0-0.1,0.1-0.2,0.4-0.2c0.4,0,0.7,0,0.9-0.1c0.5-0.1,0.6-0.7,0.7-1.4
			c0.1-1.1,0.1-3,0.1-5.4v-4.4L289.6,177.9L289.6,177.9z"/>
		<path class="st0" d="M302.5,175.6c-0.5-1.2-0.8-1.4-1.6-1.6c-0.3-0.1-0.7-0.1-0.9-0.1c-0.2,0-0.3-0.1-0.3-0.2
			c0-0.2,0.2-0.2,0.6-0.2c1.2,0,2.4,0.1,3.2,0.1c0.6,0,1.7-0.1,2.8-0.1c0.3,0,0.5,0.1,0.5,0.2c0,0.2-0.1,0.2-0.4,0.2
			c-0.4,0-0.7,0-0.9,0.2c-0.2,0.1-0.2,0.2-0.2,0.4c0,0.3,0.2,0.9,0.5,1.6l3.7,9.6h0.1c1-2.2,3.8-9.1,4.3-10.5
			c0.1-0.3,0.2-0.6,0.2-0.8s-0.1-0.3-0.3-0.4c-0.3-0.1-0.6-0.1-0.9-0.1c-0.2,0-0.4-0.1-0.4-0.2c0-0.2,0.2-0.2,0.6-0.2
			c1.1,0,2.1,0.1,2.4,0.1c0.4,0,1.4-0.1,2.1-0.1c0.3,0,0.5,0.1,0.5,0.2c0,0.2-0.1,0.2-0.4,0.2s-0.7,0-1.1,0.3
			c-0.3,0.2-0.6,0.5-1.2,1.9c-0.9,2-1.5,3.2-2.7,5.8c-1.4,3.1-2.4,5.5-2.9,6.6c-0.6,1.2-0.8,1.6-1.1,1.6c-0.3,0-0.5-0.3-0.9-1.3
			L302.5,175.6z"/>
		<path class="st0" d="M317.7,181.6c0-3.7,2.6-8.4,9.3-8.4c5.6,0,9.1,3.1,9.1,8s-3.6,8.8-9.3,8.8C320.4,190,317.7,185.4,317.7,181.6
			z M332.8,182c0-4.7-2.8-7.7-6.4-7.7c-2.5,0-5.4,1.3-5.4,6.6c0,4.4,2.5,7.9,6.7,7.9C329.3,188.8,332.8,188.1,332.8,182z"/>
		<path class="st0" d="M342.7,183.5c0,2.7,0,4.1,0.5,4.5c0.4,0.3,1.2,0.5,2.9,0.5c1.2,0,2,0,2.6-0.6c0.3-0.3,0.5-0.9,0.6-1.3
			c0-0.2,0.1-0.3,0.3-0.3c0.1,0,0.2,0.2,0.2,0.5s-0.2,1.8-0.3,2.5c-0.1,0.5-0.3,0.6-1.4,0.6c-1.6,0-2.9,0-4-0.1
			c-1.1,0-2-0.1-2.9-0.1c-0.3,0-0.7,0-1.3,0c-0.5,0-1.1,0.1-1.5,0.1c-0.3,0-0.4-0.1-0.4-0.2c0-0.1,0.1-0.2,0.4-0.2s0.6,0,0.8-0.1
			c0.5-0.1,0.6-0.5,0.7-1.1c0.1-0.9,0.1-2.6,0.1-4.6v-3.8c0-3.3,0-3.9,0-4.5c-0.1-0.7-0.3-1-1-1.2c-0.2-0.1-0.5-0.1-0.7-0.1
			c-0.3,0-0.4-0.1-0.4-0.2c0-0.2,0.1-0.2,0.5-0.2c1,0,2.4,0.1,3,0.1c0.5,0,2.3-0.1,3.2-0.1c0.3,0,0.5,0.1,0.5,0.2
			c0,0.2-0.1,0.2-0.4,0.2s-0.6,0-0.9,0.1c-0.6,0.1-0.8,0.4-0.8,1.2c-0.1,0.7-0.1,1.3-0.1,4.5v3.7L342.7,183.5L342.7,183.5z"/>
		<path class="st0" d="M351.7,179.7c0-3.3,0-3.9,0-4.5c-0.1-0.8-0.3-1-1-1.2c-0.2-0.1-0.6-0.1-0.9-0.1s-0.4-0.1-0.4-0.2
			c0-0.2,0.2-0.2,0.5-0.2c1.2,0,2.7,0.1,3.3,0.1c0.6,0,2-0.1,2.8-0.1c0.3,0,0.5,0.1,0.5,0.2c0,0.2-0.1,0.2-0.4,0.2s-0.4,0-0.7,0.1
			c-0.6,0.1-0.8,0.4-0.8,1.2c-0.1,0.7-0.1,1.3-0.1,4.5v3c0,3.1,0.6,4.3,1.7,5.2c1,0.8,2,0.9,2.8,0.9c1,0,2.1-0.3,3-1.1
			c1.2-1.2,1.3-3,1.3-5.2v-2.7c0-3.3,0-3.9-0.1-4.5c-0.1-0.7-0.2-1-0.9-1.2c-0.2-0.1-0.6-0.1-0.8-0.1c-0.3,0-0.4-0.1-0.4-0.2
			c0-0.2,0.2-0.2,0.5-0.2c1.1,0,2.6,0.1,2.6,0.1c0.3,0,1.7-0.1,2.6-0.1c0.3,0,0.5,0.1,0.5,0.2c0,0.2-0.1,0.2-0.4,0.2s-0.4,0-0.7,0.1
			c-0.6,0.1-0.8,0.4-0.8,1.2c0,0.7-0.1,1.3-0.1,4.5v2.3c0,2.4-0.3,4.9-2.1,6.5c-1.6,1.3-3.3,1.5-4.7,1.5c-1.2,0-3.5-0.1-5.1-1.5
			c-1.1-1-2-2.6-2-5.7v-3.2H351.7z"/>
		<path class="st0" d="M374.2,174.8l-3.3,0.1c-1.3,0-1.8,0.2-2.1,0.7c-0.2,0.3-0.3,0.6-0.4,0.7c-0.1,0.2-0.1,0.3-0.3,0.3
			c-0.2,0-0.2-0.1-0.2-0.4c0-0.4,0.4-2.4,0.5-2.6c0.1-0.3,0.1-0.4,0.3-0.4c0.2,0,0.4,0.2,1,0.3c0.7,0.1,1.5,0.1,2.2,0.1h9
			c0.7,0,1.2-0.1,1.5-0.1c0.4-0.1,0.5-0.1,0.6-0.1c0.2,0,0.2,0.1,0.2,0.5c0,0.5-0.1,2-0.1,2.6c0,0.2-0.1,0.4-0.2,0.4
			c-0.2,0-0.2-0.1-0.3-0.4v-0.2c-0.1-0.6-0.6-1.2-2.6-1.2l-2.8-0.1v8.7c0,2,0,3.7,0.1,4.6c0.1,0.6,0.2,1,0.9,1.1
			c0.3,0,0.8,0.1,1.1,0.1c0.3,0,0.4,0.1,0.4,0.2c0,0.2-0.2,0.2-0.4,0.2c-1.5,0-2.9-0.1-3.6-0.1c-0.5,0-2,0.1-2.9,0.1
			c-0.3,0-0.4-0.1-0.4-0.2c0-0.1,0.1-0.2,0.4-0.2s0.6,0,0.8-0.1c0.5-0.1,0.6-0.5,0.7-1.1c0.1-0.9,0.1-2.6,0.1-4.6v-8.9L374.2,174.8
			L374.2,174.8z"/>
		<path class="st0" d="M386.7,179.7c0-3.3,0-3.9,0-4.5c-0.1-0.7-0.3-1-0.8-1.1c-0.3-0.1-0.5-0.1-0.8-0.1c-0.2,0-0.4,0-0.4-0.3
			c0-0.1,0.2-0.2,0.5-0.2c0.8,0,2.3,0.1,3,0.1c0.6,0,2-0.1,2.8-0.1c0.3,0,0.5,0.1,0.5,0.2c0,0.2-0.1,0.3-0.4,0.3s-0.4,0-0.7,0.1
			c-0.6,0.1-0.8,0.4-0.8,1.2c-0.1,0.7-0.1,1.3-0.1,4.5v3.8c0,2.1,0,3.8,0.1,4.7c0.1,0.6,0.2,0.9,0.9,1c0.3,0,0.8,0.1,1.1,0.1
			c0.3,0,0.4,0.1,0.4,0.2c0,0.2-0.2,0.2-0.4,0.2c-1.5,0-3-0.1-3.6-0.1c-0.5,0-2,0.1-2.9,0.1c-0.3,0-0.4-0.1-0.4-0.2
			c0-0.1,0.1-0.2,0.4-0.2s0.6,0,0.8-0.1c0.5-0.1,0.6-0.4,0.7-1c0.1-0.9,0.1-2.6,0.1-4.7L386.7,179.7L386.7,179.7z"/>
		<path class="st0" d="M393.8,181.6c0-3.7,2.6-8.4,9.3-8.4c5.6,0,9.1,3.1,9.1,8s-3.6,8.8-9.3,8.8C396.4,190,393.8,185.4,393.8,181.6
			z M408.8,182c0-4.7-2.8-7.7-6.4-7.7c-2.5,0-5.4,1.3-5.4,6.6c0,4.4,2.5,7.9,6.7,7.9C405.3,188.8,408.8,188.1,408.8,182z"/>
		<path class="st0" d="M417.1,186.8c0.1,1.7,0.3,2.2,0.8,2.3c0.4,0.1,0.8,0.2,1.2,0.2c0.3,0,0.4,0.1,0.4,0.2c0,0.2-0.2,0.2-0.5,0.2
			c-1.4,0-2.5-0.1-2.9-0.1c-0.2,0-1.3,0.1-2.4,0.1c-0.3,0-0.5,0-0.5-0.2c0-0.1,0.1-0.2,0.4-0.2s0.7,0,1-0.1c0.6-0.2,0.7-0.7,0.7-2.6
			l0.2-12.7c0-0.4,0.2-0.7,0.4-0.7c0.3,0,0.6,0.3,1,0.7c0.3,0.3,3.6,3.7,6.8,6.8c1.5,1.5,4.5,4.5,4.8,4.8h0.1l-0.2-9.5
			c0-1.3-0.2-1.7-0.8-1.9c-0.3-0.1-0.9-0.1-1.2-0.1c-0.3,0-0.4-0.1-0.4-0.2c0-0.2,0.2-0.2,0.6-0.2c1.2,0,2.3,0.1,2.8,0.1
			c0.3,0,1.1-0.1,2.2-0.1c0.3,0,0.5,0,0.5,0.2c0,0.1-0.1,0.2-0.4,0.2c-0.2,0-0.4,0-0.7,0.1c-0.6,0.2-0.8,0.6-0.8,1.8l-0.3,13.5
			c0,0.5-0.2,0.7-0.4,0.7c-0.4,0-0.7-0.2-0.9-0.5c-1.4-1.3-4.2-3.9-6.5-6.2c-2.4-2.3-4.8-4.9-5.2-5.3h-0.1L417.1,186.8z"/>
	</g>
</g>
<rect x="119.8" class="st1" width="310.3" height="148.9"/>
<g>
	<g>
		<path class="st0" d="M262.1,114.1c-1.5-0.7-1.6-1.2-1.6-4c0-5.3,0.4-9.6,0.5-11.3c0.1-1.2,0.3-1.7,0.8-1.7c0.6,0,0.7,0.3,0.7,1.2
			c0,1,0,2.4,0.3,3.9c1.6,7.9,8.6,10.8,15.7,10.8c10.2,0,15.2-7.3,15.2-14.1c0-7.3-3.1-11.6-12.2-19.1l-4.8-3.9
			c-11.2-9.2-13.8-15.8-13.8-23c0-11.4,8.5-19.1,22-19.1c4.1,0,7.2,0.4,9.9,1.1c2,0.4,2.9,0.5,3.7,0.5c0.9,0,1.1,0.2,1.1,0.7
			s-0.4,4-0.4,11.3c0,1.7-0.2,2.4-0.7,2.4c-0.6,0-0.7-0.5-0.8-1.4c-0.1-1.3-0.7-4.1-1.4-5.3c-0.6-1.2-3.5-5.6-13.3-5.6
			c-7.3,0-13.1,4.6-13.1,12.3c0,6.1,2.8,9.9,12.9,17.8l3,2.3c12.5,9.9,15.5,16.5,15.5,24.9c0,4.4-1.7,12.4-9,17.6
			c-4.6,3.2-10.3,4.5-16,4.5C271.4,116.9,266.5,116.2,262.1,114.1z"/>
		<path class="st0" d="M312,114.1c-1.5-0.7-1.6-1.2-1.6-4c0-5.3,0.4-9.6,0.5-11.3c0.1-1.2,0.3-1.7,0.9-1.7s0.7,0.3,0.7,1.2
			c0,1,0,2.4,0.3,3.9c1.6,7.9,8.6,10.8,15.7,10.8c10.2,0,15.2-7.3,15.2-14.1c0-7.3-3.1-11.6-12.2-19.1l-4.8-3.9
			C315.5,66.6,313,60,313,52.8c0-11.4,8.5-19.1,22-19.1c4.1,0,7.2,0.4,9.9,1.1c2,0.4,2.9,0.5,3.7,0.5c0.9,0,1.1,0.2,1.1,0.7
			s-0.4,4-0.4,11.3c0,1.7-0.2,2.4-0.7,2.4c-0.6,0-0.7-0.5-0.8-1.4c-0.1-1.3-0.7-4.1-1.4-5.3c-0.6-1.2-3.5-5.6-13.3-5.6
			c-7.3,0-13.1,4.6-13.1,12.3c0,6.1,2.8,9.9,12.9,17.8l3,2.3c12.5,9.9,15.5,16.5,15.5,24.9c0,4.4-1.7,12.4-9,17.6
			c-4.6,3.2-10.3,4.5-16,4.5C321.3,116.9,316.4,116.2,312,114.1z"/>
		<path class="st0" d="M368.2,65.9c0-16.7,0-19.7-0.2-23.1c-0.2-3.6-1.1-5.4-4.6-6.1c-0.9-0.2-2.7-0.3-3.6-0.3
			c-0.4,0-0.9-0.2-0.9-0.6c0-0.6,0.5-0.9,1.7-0.9c2.5,0,5.4,0,7.7,0.1l4.4,0.2c0.7,0,22.1,0,24.5-0.1c2-0.1,3.8-0.3,4.6-0.5
			c0.5-0.1,1-0.5,1.5-0.5c0.3,0,0.4,0.4,0.4,1c0,0.7-0.5,2-0.9,5c-0.1,1.1-0.3,5.8-0.5,7.1c-0.1,0.5-0.3,1.2-0.8,1.2
			c-0.6,0-0.9-0.5-0.9-1.4c0-0.8-0.1-2.6-0.6-3.9c-0.7-1.7-1.8-3-7.6-3.6c-1.8-0.2-13.5-0.3-14.7-0.3c-0.4,0-0.6,0.3-0.6,1.1v29.6
			c0,0.8,0.1,1.1,0.6,1.1c1.4,0,14.6,0,17-0.2c2.6-0.2,4.1-0.4,5-1.5c0.7-0.9,1.2-1.4,1.6-1.4c0.3,0,0.5,0.2,0.5,0.9
			c0,0.6-0.5,2.5-0.9,6c-0.2,2.1-0.4,6.1-0.4,6.9c0,0.9,0,2-0.7,2c-0.5,0-0.7-0.4-0.7-1c0-1.1,0-2.1-0.4-3.5
			c-0.4-1.5-1.4-3.3-5.6-3.8c-2.9-0.3-13.5-0.5-15.3-0.5c-0.5,0-0.7,0.3-0.7,0.8v9.4c0,3.6-0.1,16.1,0,18.3
			c0.3,7.4,1.9,8.8,12.4,8.8c2.8,0,7.5,0,10.3-1.2s4.1-3.3,4.8-7.7c0.2-1.2,0.4-1.6,1-1.6s0.6,0.9,0.6,1.6c0,0.9-0.9,8.1-1.4,10.4
			c-0.7,2.8-1.6,2.8-5.8,2.8c-8,0-13.9-0.2-18.1-0.3c-4.2-0.2-6.8-0.3-8.4-0.3c-0.2,0-2,0-4.3,0.1c-2.1,0-4.6,0.2-6.2,0.2
			c-1.2,0-1.7-0.2-1.7-0.9c0-0.3,0.2-0.6,0.9-0.6c1,0,2.2-0.2,3.2-0.4c2.1-0.4,2.7-2.8,3.1-5.9c0.5-4.5,0.5-13,0.5-23.3V65.9H368.2z
			"/>
	</g>
</g>
<g>
	<path d="M247.8,95c-1.3-6.5-5-11.5-10.1-14.3c-8.4-4.6-17.4-8.2-26.5-11.3c-10.3-3.5-21-5.9-31.5-9C175,59,170.6,57,165.1,55
		l-4.9-2.2c-5.5-1.4-10.7-3.9-16-6.1c-1.1-0.5-2.9-1.9-2.8-2.4c0.6-2.1,1.3-4.9,2.9-6c3.3-2.2,7.2-3.4,10.9-5.1
		c2.4-1.1,10.2-5.1,12.6-6.2c-0.1-0.4-0.3-0.9-0.4-1.3c-0.8,0-7,2.6-7.7,2.9c-3.4,1.5-6.6,3.3-10,4.6c-4.2,1.5-9.3,1.5-10.3,7.4
		c0,0.2-1,0.5-1.3,0.3c-3-1.8-5.9-3.8-8.8-5.6c-1.6-1-3.3-1.9-5-2.8c-1-0.5-2.5-1.7-3.2-1.3c-0.4,0.2-0.8,0.4-1.1,0.6v86.7
		c0.5-0.3,1-0.7,1.5-1c2-1.4,3.9-2.9,5.8-4.3c0.3,1.5,0.7,2.9,1,4.4c0,0.2,0,0.4,0.1,0.5c2.4,2.4,4.4,5.6,7.3,7
		c5.1,2.5,10.6,4.9,16.2,5.5c3.5,0.4,7.3-2.4,11-3.9c2-0.8,3.8-2.6,5.8-2.9c4.9-0.9,8.6-3.2,11.6-7.2c1-1.4,2.6-2.8,4.2-3.1
		c2.7-0.6,5.6-0.3,8.4-0.5c7.3-0.4,14.7-0.5,22-1.3c5.8-0.6,11.5-1.8,17.1-3.2c3.6-0.9,7.1-2.6,10.4-3.9c0.5-0.7,0.9-1.6,1.5-2
		C246.7,100.8,248.6,99.2,247.8,95z"/>
	<path class="st0" d="M246.1,93.4c-1.3-6.5-5-11.5-10.1-14.3c-8.4-4.6-17.4-8.2-26.5-11.3c-10.3-3.5-21-5.9-31.5-9
		c-4.6-1.4-9.1-3.3-14.6-5.4l-4.9-2.2c-5.5-1.4-10.7-3.9-16-6.1c-1.1-0.5-2.9-1.9-2.8-2.4c0.6-2.1,1.3-4.9,2.9-6
		c3.3-2.2,7.2-3.4,10.9-5.1c2.4-1.1,12.3-4.8,14.7-6c-0.1-0.4-0.3-0.9-0.4-1.3c-0.8,0-9.1,2.3-9.8,2.6c-3.4,1.5-6.6,3.3-10,4.6
		c-4.2,1.5-9.3,1.5-10.3,7.4c0,0.2-1,0.5-1.3,0.3c-3-1.8-5.9-3.8-8.8-5.6c-1.6-1-3.3-1.9-5-2.8c-0.9-0.5-2.1-1.3-2.8-1.4v86.3l0,0
		c2-1.4,3.9-2.9,5.8-4.3c0.3,1.5,0.7,2.9,1,4.4c0,0.2,0,0.4,0.1,0.5c2.4,2.4,4.4,5.6,7.3,7c5.1,2.5,10.6,4.9,16.2,5.5
		c3.5,0.4,7.3-2.4,11-3.9c2-0.8,3.8-2.6,5.8-2.9c4.9-0.9,8.6-3.2,11.6-7.2c1-1.4,2.6-2.8,4.2-3.1c2.7-0.6,5.6-0.3,8.4-0.5
		c7.3-0.4,14.7-0.5,22-1.3c5.8-0.6,11.5-1.8,17.1-3.2c3.6-0.9,7.1-2.6,10.4-3.9c0.5-0.7,0.9-1.6,1.5-2
		C245,99.2,246.9,97.5,246.1,93.4z M136.5,46.5c0.4-1,0.6-1.7,1-2.7c0.8,0.5,1.5,0.9,1.7,1c0.3,1.4,0.4,2.2,0.7,3.4
		C138.6,47.6,137.5,47,136.5,46.5z"/>
	<polygon points="135.1,63.9 137.4,61.6 139.8,65.1 138.4,66.5 134.3,66.5 	"/>
	<polygon points="187.1,81.6 189.3,79.4 191.8,82.8 190.3,84.3 186.2,84.3 	"/>
	<polygon points="207.8,94.8 209.8,97.3 206.1,99.4 204.8,97.8 205.2,93.7 	"/>
	<polygon points="147.5,112.5 149.7,110.2 152.1,113.7 150.7,115.1 146.6,115.1 	"/>
	<polygon points="163.9,85.1 164.9,81.8 167,86.3 165.5,90.2 161.7,88.8 	"/>
	<polygon points="217.6,90.6 214.3,89.7 218.7,87.5 222.6,88.9 221.3,92.8 	"/>
	<polygon points="166.2,108.1 162.8,107.8 166.7,104.8 170.8,105.4 170.3,109.4 	"/>
	<polygon points="145,58.1 147.9,59.8 143.1,60.7 139.6,58.3 141.9,55 	"/>
	<polygon points="130.9,83.6 134.3,83.4 130.8,86.9 126.7,86.8 126.7,82.7 	"/>
	<polygon points="139.8,78.6 137.1,79.6 139.8,81.8 	"/>
	<polygon points="190.4,98.4 187.6,99.4 190.4,101.6 	"/>
	<polygon points="130.2,54.1 127.4,55.1 130.2,57.3 	"/>
	<polygon points="180.2,64.9 177.5,65.9 180.2,68.1 	"/>
	<polygon points="137.9,96.7 135.1,97.8 137.9,100 	"/>
	<polygon points="163,100.1 162.6,97.2 159.8,99.4 	"/>
	<polygon points="155.3,76.9 154.9,74 152.1,76.2 	"/>
	<path d="M200.4,64.9l-4.5,6.5l-2,5.5l6.5-2.9l6.9,2.9l7-1.5v-4.6c0,0,9.9,2.7,4,0C212.4,68.1,200.4,64.9,200.4,64.9z"/>
	<path class="st0" d="M120.3,29.4c-3.5,1.7-6.8,3.9-10.3,5.7c-1.4,0.7-3.3,1.8-4.4,1.3c-3.5-1.6-6.7-3.8-10.1-5.8
		c-0.3,0.5-0.5,0.7-0.4,0.6c-1.2-1.1-2.3-2.3-3.7-3.1c-1.5-1-3.2-1.6-5.1-2.6c-1.9-3-4-6.6-6.3-10c-0.4-0.6-2.1-0.4-3.3-0.6
		c0.1,1.5-0.1,2.7,0.4,3.2c4.1,3.8,8.3,7.5,12.5,11.2c2.2,1.9,4.3,3.8,6.6,5.5c1.6,1.2,3.6,1.8,5.4,2.9c0.3,0.2,0.5,1.3,0.3,1.8
		c-1.9,4.1-4.7,6.7-9.2,8.6C77,54.5,61.8,61.8,46.4,68.8c-10,4.6-20.3,8.8-30.1,13.9c-7.5,3.9-13.8,9.4-15.2,18.4
		c-0.4,2.3-0.2,5.6,1.1,7c2,1.9,5.2,3,8.1,3.6c7,1.6,14,2.9,21.1,3.9c2.9,0.4,6-0.5,9.1-0.5c2.8-0.1,5.5,0.4,8.3,0.3
		c3.5-0.1,7.1-1.5,10.3-0.8c4.5,0.9,8.9,3,13.1,5.1c3.8,1.9,7.1,4.9,10.9,6.8c3.7,1.8,7.7,1.9,11.6-0.2c1.9-1,4.3-1,6.5-1.4
		c2-0.3,4.6,0.6,4.7-2.9c0-0.5,0.8-1.4,1.4-1.6c2.6-0.6,5.3-0.6,7.8-1.4c1.9-0.6,3.6-2,5.3-3.1L120.3,29.4
		C120.5,29.4,120.4,29.4,120.3,29.4z"/>
	<path d="M160.5,26.1c0.2,0.8,0.5,1.6,1,2.2c2.9-1.1,5.6-2.2,6.7-2.8c-0.1-0.4-0.3-0.9-0.4-1.3C167.2,24.3,163.2,25.4,160.5,26.1z"
		/>
</g>
</svg>
